The Desstiny Of Rome (2011) H264 DVDRip AC3-5.1 NL Subs
.
NL Subs in idx formaat
.
[IMG]http://img96.imageshack.us/img96/4547/893zd.jpg[/IMG]
.
Op 15 maart, 44 v. Chr. wordt de Romeinse keizer Julius Caesar verraden en vermoord. Tot de schuldigen behoort ook zijn eigen geadopteerde zoon, Brutus... Het Romeinse rijk heeft het zwaar zonder de grote Dictator aan het hoofd. Marcus Antonius en Octavianus - de ÚÚn CaesarÆs rechterhand, de andere zijn jonge neef - zetten hun ontluikende rivaliteit opzij om hun krachten te bundelen in de strijd tegen de moordenaars. Passie, oorlog, intriges, macht en drama zijn allemaal aanwezig ten tijde van de strijd die de wereld voor altijd zou veranderen...
.
PLOT
.
At the Battle of Philippi, Marc Antony and Octavian fight back their joint enemies to lay claim to Caesar's throne. Eleven years later, the two square off in the naval Battle of Actium to decide once and for all the destiny of Rome. The bitter personal rivalry between the two men climaxes when Marc Antony abandons his attacking forces to pursue the fleeing Cleopatra. This single act sounded the death knell of the Roman Republic and gave birth to an empire.
. 
http://www.imdb.com/title/tt1722310/
.
Source: DVD9
.
Part1 - INFO
.
Format                           : AVI
Format/Info                      : Audio Video Interleave
Format profile                   : OpenDML
File size                        : 1.37 GiB
Duration                         : 51mn 55s
Overall bit rate                 : 3 773 Kbps
Movie name                       : DVD.TDORP1.DVDRip2012
Writing application              : Lavf52.78.4
Original source form/Name        : DVD

Video
ID                               : 0
Format                           : AVC
Format/Info                      : Advanced Video Codec
Codec ID                         : H264
Duration                         : 51mn 55s
Bit rate                         : 3 313 Kbps
Width                            : 720 pixels
Height                           : 326 pixels
Display aspect ratio             : 2.2:1
Frame rate                       : 25.000 fps
Color space                      : YUV
Chroma subsampling               : 4:2:0
Bits/(Pixel*Frame)               : 0.565
Stream size                      : 1.20 GiB (88%)

Audio
ID                               : 1
Format                           : AC-3
Format/Info                      : Audio Coding 3
Mode extension                   : CM (complete main)
Codec ID                         : 2000
Duration                         : 51mn 54s
Bit rate mode                    : Constant
Bit rate                         : 448 Kbps
Channel(s)                       : 6 channels
Channel positions                : Front: L C R, Side: L R, LFE
Sampling rate                    : 48.0 KHz
Bit depth                        : 16 bits
Stream size                      : 166 MiB (12%)
Alignment                        : Aligned on interleaves
Interleave, duration             : 32 ms (0.80 video frame)
Interleave, preload duration     : 32 ms
.
Part2 - INFO
.
Format                           : AVI
Format/Info                      : Audio Video Interleave
Format profile                   : OpenDML
File size                        : 1.37 GiB
Duration                         : 51mn 51s
Overall bit rate                 : 3 779 Kbps
Movie name                       : DVD.TDORP2.DVDRip2012
Writing application              : Lavf52.78.4
Original source form/Name        : DVD

Video
ID                               : 0
Format                           : AVC
Format/Info                      : Advanced Video Codec
Codec ID                         : H264
Duration                         : 51mn 51s
Bit rate                         : 3 319 Kbps
Width                            : 720 pixels
Height                           : 328 pixels
Display aspect ratio             : 2.2:1
Frame rate                       : 25.000 fps
Color space                      : YUV
Chroma subsampling               : 4:2:0
Bits/(Pixel*Frame)               : 0.562
Stream size                      : 1.20 GiB (88%)

Audio
ID                               : 1
Format                           : AC-3
Format/Info                      : Audio Coding 3
Mode extension                   : CM (complete main)
Codec ID                         : 2000
Duration                         : 51mn 48s
Bit rate mode                    : Constant
Bit rate                         : 448 Kbps
Channel(s)                       : 6 channels
Channel positions                : Front: L C R, Side: L R, LFE
Sampling rate                    : 48.0 KHz
Bit depth                        : 16 bits
Stream size                      : 166 MiB (12%)
Alignment                        : Aligned on interleaves
Interleave, duration             : 32 ms (0.80 video frame)
Interleave, preload duration     : 32 ms
.
Enjoy

